<svg height="29" width="25" xmlns="http://www.w3.org/2000/svg" viewBox="0 0 304 347"><path fill="currentColor" fill-rule="evenodd" d="M58.27 347C26.14 347 0 320.9 0 288.83c0-32.08 26.14-58.18 58.27-58.18 6.9 0 12.5 5.59 12.5 12.48 0 6.9-5.6 12.49-12.5 12.49-18.34 0-33.26 14.9-33.26 33.21 0 18.31 14.92 33.2 33.26 33.2 18.34 0 33.26-14.89 33.26-33.2l-.05-234.39c0-5.86 4.08-10.93 9.8-12.2L288.79.82A12.505 12.505 0 0 1 304 13.02l-.26 227.05c0 32.07-26.14 58.17-58.26 58.17-32.13 0-58.27-26.1-58.27-58.18s26.14-58.18 58.27-58.18c6.9 0 12.5 5.59 12.5 12.49 0 6.89-5.6 12.48-12.5 12.48-18.34 0-33.26 14.9-33.26 33.21 0 18.31 14.92 33.21 33.26 33.21 18.33 0 33.25-14.9 33.25-33.21l.24-211.5-162.48 35.9.04 224.36C116.54 320.9 90.4 347 58.27 347z"/></svg>