<?xml version="1.0" encoding="utf-8"?>
<!-- Generator: Avocode 2.6.0 - http://avocode.com -->
<svg height="15" width="15" xmlns:xlink="http://www.w3.org/1999/xlink" xmlns="http://www.w3.org/2000/svg" viewBox="0 0 15 15">
    <path fill-opacity="0.8" fill="#999999" fill-rule="evenodd" d="M 12.19 12.18 C 12.19 12.18 6.57 12.18 6.57 12.18 C 6.57 12.18 4.69 14.99 4.69 14.99 C 4.69 14.99 2.82 12.18 2.82 12.18 C 1.26 12.18 0 10.92 0 9.36 C 0 9.36 0 2.81 0 2.81 C 0 1.25 1.26 -0.01 2.82 -0.01 C 2.82 -0.01 12.19 -0.01 12.19 -0.01 C 13.74 -0.01 15 1.25 15 2.81 C 15 2.81 15 9.36 15 9.36 C 15 10.92 13.74 12.18 12.19 12.18 Z" />
</svg>