<?xml version="1.0" encoding="utf-8"?>
<!-- Generator: Avocode 2.6.0 - http://avocode.com -->
<svg height="17" width="13" xmlns:xlink="http://www.w3.org/1999/xlink" xmlns="http://www.w3.org/2000/svg" viewBox="0 0 13 17">
    <path fill-opacity="0.8" fill="#999999" fill-rule="evenodd" d="M 3 12.19 C 1.35 12.19 0 10.85 0 9.19 C 0 9.19 0 7.19 0 7.19 C 0 5.54 1.35 4.19 3 4.19 C 3 4.19 4 4.19 4 4.19 C 4 4.19 9 0.19 9 0.19 C 9 0.19 9 16.19 9 16.19 C 9 16.19 4 12.19 4 12.19 C 4 12.19 3 12.19 3 12.19 Z M 13 8.19 C 13 10.05 11.72 11.6 10 12.05 C 10 12.05 10 9.91 10 9.91 C 10.6 9.57 11 8.93 11 8.19 C 11 7.45 10.6 6.82 10 6.47 C 10 6.47 10 4.34 10 4.34 C 11.72 4.78 13 6.33 13 8.19 Z" />
</svg>