<?xml version="1.0" encoding="utf-8"?>
<!-- Generator: Avocode 2.6.0 - http://avocode.com -->
<svg height="29" width="25" xmlns:xlink="http://www.w3.org/1999/xlink" xmlns="http://www.w3.org/2000/svg" viewBox="0 0 304 347">
    <path fill="currentColor" fill-rule="evenodd" d="M 58.27 347 C 26.14 347 0 320.9 0 288.83 C 0 256.75 26.14 230.65 58.27 230.65 C 65.17 230.65 70.77 236.24 70.77 243.13 C 70.77 250.03 65.17 255.62 58.27 255.62 C 39.93 255.62 25.01 270.52 25.01 288.83 C 25.01 307.14 39.93 322.03 58.27 322.03 C 76.61 322.03 91.53 307.14 91.53 288.83 C 91.53 288.83 91.48 54.44 91.48 54.44 C 91.48 48.58 95.56 43.51 101.28 42.24 C 101.28 42.24 288.79 0.82 288.79 0.82 C 292.49 0 296.37 0.9 299.33 3.28 C 302.28 5.65 304 9.23 304 13.02 C 304 13.02 303.74 240.07 303.74 240.07 C 303.74 272.14 277.6 298.24 245.48 298.24 C 213.35 298.24 187.21 272.14 187.21 240.06 C 187.21 207.98 213.35 181.88 245.48 181.88 C 252.38 181.88 257.98 187.47 257.98 194.37 C 257.98 201.26 252.38 206.85 245.48 206.85 C 227.14 206.85 212.22 221.75 212.22 240.06 C 212.22 258.37 227.14 273.27 245.48 273.27 C 263.81 273.27 278.73 258.37 278.73 240.06 C 278.73 240.06 278.97 28.56 278.97 28.56 C 278.97 28.56 116.49 64.46 116.49 64.46 C 116.49 64.46 116.53 288.82 116.53 288.82 C 116.54 320.9 90.4 347 58.27 347 Z" />
</svg>