<?xml version="1.0" encoding="utf-8"?>
<!-- Generator: Avocode 2.6.0 - http://avocode.com -->
<svg height="15" width="16" xmlns:xlink="http://www.w3.org/1999/xlink" xmlns="http://www.w3.org/2000/svg" viewBox="0 0 16 15">
    <path fill="#999999" fill-rule="evenodd" d="M 13 14.09 C 13 14.09 3 14.09 3 14.09 C 1.35 14.09 0 12.74 0 11.09 C 0 11.09 0 6.09 0 6.09 C 0 4.43 1.35 3.09 3 3.09 C 3 3.09 3.76 3.09 3.76 3.09 C 3.25 3.73 2.84 4.44 2.54 5.22 C 2.23 5.38 2 5.7 2 6.09 C 2 6.09 2 11.09 2 11.09 C 2 11.64 2.45 12.09 3 12.09 C 3 12.09 13 12.09 13 12.09 C 13.55 12.09 14 11.64 14 11.09 C 14 11.09 14 8.59 14 8.59 C 14 8.59 16 7.09 16 7.09 C 16 7.09 16 11.09 16 11.09 C 16 12.74 14.66 14.09 13 14.09 Z M 11.6 7.89 C 11.42 8.02 11.21 8.09 11 8.09 C 10.85 8.09 10.7 8.05 10.55 7.98 C 10.22 7.81 10 7.47 10 7.09 C 10 7.09 10 6.09 10 6.09 C 7.39 6.09 5.17 7.76 4.35 10.09 C 4.13 9.46 4 8.79 4 8.09 C 4 4.78 6.69 2.09 10 2.09 C 10 2.09 10 1.09 10 1.09 C 10 0.71 10.22 0.37 10.55 0.2 C 10.7 0.13 10.85 0.09 11 0.09 C 11.21 0.09 11.42 0.16 11.6 0.29 C 11.6 0.29 15.6 3.29 15.6 3.29 C 15.85 3.48 16 3.77 16 4.09 C 16 4.4 15.85 4.7 15.6 4.89 C 15.6 4.89 11.6 7.89 11.6 7.89 Z" />
</svg>